<?xml version="1.0" encoding="UTF-8" standalone="no"?>
<!-- Generator: Adobe Illustrator 13.0.2, SVG Export Plug-In . SVG Version: 6.00 Build 14948)  -->

<svg
   xmlns:dc="http://purl.org/dc/elements/1.1/"
   xmlns:cc="http://creativecommons.org/ns#"
   xmlns:rdf="http://www.w3.org/1999/02/22-rdf-syntax-ns#"
   xmlns:svg="http://www.w3.org/2000/svg"
   xmlns="http://www.w3.org/2000/svg"
   xmlns:sodipodi="http://sodipodi.sourceforge.net/DTD/sodipodi-0.dtd"
   xmlns:inkscape="http://www.inkscape.org/namespaces/inkscape"
   version="1.1"
   id="Ebene_1"
   x="0px"
   y="0px"
   width="220px"
   height="200px"
   viewBox="0 0 220 200"
   enable-background="new 0 0 220 200"
   xml:space="preserve"
   inkscape:version="0.48.3.1 r9886"
   sodipodi:docname="logo.svg"><metadata
   id="metadata3115"><rdf:RDF><cc:Work
       rdf:about=""><dc:format>image/svg+xml</dc:format><dc:type
         rdf:resource="http://purl.org/dc/dcmitype/StillImage" /><dc:title></dc:title></cc:Work></rdf:RDF></metadata><defs
   id="defs3113" /><sodipodi:namedview
   pagecolor="#ffffff"
   bordercolor="#666666"
   borderopacity="1"
   objecttolerance="10"
   gridtolerance="10"
   guidetolerance="10"
   inkscape:pageopacity="0"
   inkscape:pageshadow="2"
   inkscape:window-width="1024"
   inkscape:window-height="709"
   id="namedview3111"
   showgrid="false"
   inkscape:zoom="1.6970563"
   inkscape:cx="98.820586"
   inkscape:cy="100.93944"
   inkscape:window-x="0"
   inkscape:window-y="27"
   inkscape:window-maximized="1"
   inkscape:current-layer="g3083"
   showguides="true"
   inkscape:guide-bbox="true" />
<polygon
   points="201.51,48.685 201.51,10.92 20.542,10.92 20.542,48.685 6.383,48.685 6.383,126.065   215.396,126.065 215.396,48.685 "
   id="polygon3071"
   fill="#FF0000" />
<path
   d="M2.605,127.709V44.906h14.16V7.142h188.522v37.764h13.885v82.803H2.605L2.605,127.709z M8.51,124.736  l203.994,0.179l-0.884-72.453h-13.89V14.696H24.317v37.766h-14.16l-1.381,69.877L8.51,124.736z"
   id="path3073"
   fill="#EB1019" />
<polygon
   points="29.972,6.829 29.972,23.848 36.422,32.574 55.382,26.136 55.305,0.438 "
   id="polygon3075"
   fill="#FFFFFF" />
<polygon
   points="76.686,103.309 187.977,92.94 188.003,126.69 33.813,126.69 33.899,93.641 "
   id="polygon3077"
   transform="translate(-2,0)"
   style="fill:#bd101d;stroke:#bd101d" />
<polygon
   points="33.871,52.401 33.871,74.63 73.602,86.029 187.13,75.945 187.13,52.758 161.239,69.688 149.609,64.863 125.424,48.352 96.529,57.145 "
   id="polygon3079"
   transform="matrix(1,0,0,0.69388024,-2,24.335177)"
   style="fill:#bd101d;stroke:#bd101d" />


<g
   id="g3099"
   transform="translate(-2,0)">
	<path
   d="m 152.609,183.135 c 0,-1.57 -0.027,-2.921 -0.11,-4.161 h 2.122 l 0.083,2.618 h 0.109 c 0.606,-1.791 2.067,-2.921 3.693,-2.921 0.275,0 0.468,0.027 0.688,0.082 v 2.288 c -0.248,-0.056 -0.496,-0.083 -0.826,-0.083 -1.709,0 -2.922,1.295 -3.252,3.114 -0.056,0.33 -0.11,0.716 -0.11,1.13 v 7.109 h -2.397 v -9.176 z"
   id="path3101"
   inkscape:connector-curvature="0"
   style="fill:#ff0000" />
	<path
   d="m 165.289,186.084 c 0.055,3.279 2.149,4.629 4.574,4.629 1.736,0 2.783,-0.303 3.692,-0.688 l 0.414,1.736 c -0.854,0.386 -2.315,0.854 -4.438,0.854 -4.105,0 -6.559,-2.728 -6.559,-6.751 0,-4.023 2.37,-7.192 6.256,-7.192 4.354,0 5.512,3.83 5.512,6.283 0,0.496 -0.056,0.882 -0.083,1.13 h -9.368 z m 7.109,-1.736 c 0.027,-1.543 -0.634,-3.941 -3.362,-3.941 -2.452,0 -3.527,2.26 -3.72,3.941 h 7.082 z"
   id="path3103"
   inkscape:connector-curvature="0"
   style="fill:#ff0000" />
	<path
   d="m 180.262,172.746 h 2.425 v 19.565 h -2.425 v -19.565 z"
   id="path3105"
   inkscape:connector-curvature="0"
   style="fill:#ff0000" />
	<path
   d="m 198.469,189.115 c 0,1.157 0.056,2.287 0.221,3.196 h -2.204 l -0.193,-1.681 h -0.083 c -0.744,1.047 -2.177,1.983 -4.078,1.983 -2.7,0 -4.078,-1.901 -4.078,-3.83 0,-3.225 2.865,-4.988 8.019,-4.96 v -0.276 c 0,-1.102 -0.303,-3.086 -3.031,-3.086 -1.24,0 -2.535,0.386 -3.472,0.992 l -0.552,-1.599 c 1.103,-0.717 2.701,-1.185 4.382,-1.185 4.078,0 5.07,2.783 5.07,5.456 v 4.99 z m -2.342,-3.61 c -2.646,-0.055 -5.649,0.413 -5.649,3.004 0,1.57 1.047,2.314 2.287,2.314 1.736,0 2.839,-1.103 3.225,-2.232 0.082,-0.247 0.138,-0.523 0.138,-0.771 v -2.315 z"
   id="path3107"
   inkscape:connector-curvature="0"
   style="fill:#ff0000" />
	<path
   d="m 206.228,178.974 1.901,2.866 c 0.496,0.744 0.909,1.433 1.351,2.177 h 0.082 c 0.441,-0.799 0.882,-1.488 1.323,-2.204 l 1.874,-2.839 h 2.618 l -4.548,6.448 4.686,6.89 h -2.756 l -1.957,-3.004 c -0.523,-0.771 -0.964,-1.516 -1.433,-2.314 h -0.056 c -0.44,0.826 -0.909,1.516 -1.405,2.314 l -1.929,3.004 h -2.673 l 4.739,-6.807 -4.519,-6.531 h 2.702 z"
   id="path3109"
   inkscape:connector-curvature="0"
   style="fill:#ff0000" />
</g>
<g
   inkscape:groupmode="layer"
   id="layer3"
   inkscape:label="m"><g
     id="g3083"
     transform="matrix(0.98112762,0,0,0.98112762,1.1372617,-14.174829)"
     style="fill:#280b0b">
	
	<path
   d="m 71.259196,166.45391 c 0,14.86328 -10.147455,21.50617 -20.135627,21.50617 -11.114853,0 -19.651927,-7.88891 -19.651927,-20.84324 0,-13.2858 8.4567,-21.42481 20.296373,-21.42481 11.677463,0.001 19.491181,8.47199 19.491181,20.76188 z m -29.559726,0.41436 c 0,7.80603 3.704464,13.70162 9.74559,13.70162 5.637801,0 9.584845,-5.72986 9.584845,-13.86737 0,-6.30992 -2.738525,-13.53441 -9.503009,-13.53441 -7.008525,0 -9.827426,6.97286 -9.827426,13.70016 z"
   id="path3087"
   inkscape:connector-curvature="0"
   style="fill:#280b0b" />
	<path
   d="m 113.1569,174.92289 c 0,4.81681 0.16074,8.80195 0.32294,12.12414 h -8.69925 l -0.48372,-6.14417 h -0.16073 c -1.69076,2.90636 -5.55743,7.05873 -12.564499,7.05873 -7.16781,0 -13.692634,-4.40096 -13.692634,-17.6054 v -23.7496 h 9.906335 v 22.00488 c 0,6.72576 2.094082,11.04386 7.328555,11.04386 3.947049,0 6.523363,-2.90636 7.571143,-5.48125 0.32295,-0.91304 0.56407,-1.99182 0.56407,-3.15496 v -24.41403 h 9.90634 v 28.3178 z"
   id="path3089"
   inkscape:connector-curvature="0"
   style="fill:#280b0b" />
	<path
   d="m 151.23907,185.80103 c -2.09553,0.99742 -6.20186,2.16056 -11.11485,2.16056 -12.24154,0 -20.21453,-8.1375 -20.21453,-20.6775 0,-12.12416 8.05337,-21.59055 21.8264,-21.59055 3.62407,0 7.33,0.83017 9.58483,1.91046 l -1.77112,7.6388 c -1.61187,-0.7473 -3.94559,-1.57748 -7.49077,-1.57748 -7.57113,0 -12.0808,5.72985 -12.00042,13.12006 0,8.30476 5.23594,13.03719 12.00042,13.03719 3.46335,0 5.8789,-0.74731 7.81226,-1.57747 l 1.36778,7.55593 z"
   id="path3091"
   inkscape:connector-curvature="0"
   style="fill:#280b0b" />
	<path
   d="m 156.94119,128.08814 h 9.9867 v 24.08106 h 0.1622 c 1.20707,-1.91044 2.89781,-3.57079 4.91154,-4.64958 1.93187,-1.16164 4.27,-1.82759 6.76594,-1.82759 6.6841,0 13.69262,4.56673 13.69262,17.52104 v 23.83246 h -9.90633 v -22.6693 c 0,-5.8956 -2.09554,-10.29808 -7.57259,-10.29808 -3.86521,0 -6.60522,2.65777 -7.65007,5.72985 -0.32294,0.8317 -0.40331,1.91197 -0.40331,3.07362 v 24.16391 h -9.9867 v -58.95739 z"
   id="path3093"
   inkscape:connector-curvature="0"
   style="fill:#280b0b" />
	
	
<g
   style="font-size:40px;font-style:normal;font-variant:normal;font-weight:normal;font-stretch:normal;line-height:125%;letter-spacing:0px;word-spacing:0px;fill:#280b0b;fill-opacity:1;stroke:none;font-family:URW Bookman L;-inkscape-font-specification:URW Bookman L"
   id="text3117"
   transform="matrix(1.9608186,0,0,0.49799751,-27.263376,60.998076)"><path
     d="m 16.326199,10.952778 0,242.472782 12.573475,0 0,-192.008355 28.797502,50.603295 7.025088,0 49.049926,-51.684078 0,193.089138 10.48199,0 0,-242.472782 -9.84262,0 L 62.560698,85.271109 29.0709,10.952778 l -15.900366,0"
     style="font-size:262px;font-weight:bold;fill:#280b0b;font-family:Inconsolata;-inkscape-font-specification:Inconsolata Bold"
     id="path3147"
     inkscape:connector-curvature="0"
     sodipodi:nodetypes="cccccccccccccc" /></g></g></g><g
   inkscape:groupmode="layer"
   id="layer2"
   inkscape:label="man"
   style="display:inline"><polygon
     points="151.931,80.169 187.13,77.01 184.075,69.212 164.271,64.369 128.412,35.152 89.34,49.973 77.334,34.173 95.421,15.785 112.66,15.785 119.461,21.515 119.461,15.785 133.01,15.785 129.737,8.181 90.051,1.897 53.414,25.361 16.749,37.652 9.587,45.228 9.587,65.542 19.699,69.846 19.699,58.113 24.002,61.485 24.002,53.469 33.871,53.467 52.137,80.971 58.873,82.808 68.02,120.713 72.766,122.681 76.123,136.549 102.592,136.549 89.863,83.941 125.821,60.593 145.377,77.117 150.128,75.256 "
     id="polygon3081"
     style="fill:#ffffff" /></g></svg>